<?xml version="1.0" encoding="UTF-8"?>
<svg version="1.1" xmlns="http://www.w3.org/2000/svg" width="1920" height="960">
<path d="M0 0 C11.22681987 8.91318469 17.11179982 20.2325639 20 34.1484375 C21.84786908 55.95329267 16.29845386 76.06167053 5.3125 94.8359375 C9.04262193 92.75431127 12.77157012 90.67059285 16.5 88.5859375 C17.63896729 87.94914062 18.77793457 87.31234375 19.95141602 86.65625 C26.07379161 83.22937597 32.17947018 79.77586866 38.25805664 76.27172852 C51.13150258 68.85439379 64.17818036 61.77962815 77.3125 54.8359375 C77.93981018 54.50360107 78.56712036 54.17126465 79.21343994 53.82885742 C158.23447551 11.98646163 246.72286633 -21.73512175 336.5090332 5.43481445 C354.34164322 11.18008519 372.06449589 19.49899206 386.3125 31.8359375 C387.81103516 33.12951172 387.81103516 33.12951172 389.33984375 34.44921875 C409.54929646 52.27846824 427.3944635 75.91405411 429.53564453 103.73535156 C430.74706046 128.15354723 425.31728748 149.37965174 408.875 168.0859375 C394.5528907 183.374125 375.83420066 194.34169599 354.4921875 195.171875 C342.45338518 195.34354625 331.70487402 195.07334491 320.3125 190.8359375 C318.78882813 190.29259766 318.78882813 190.29259766 317.234375 189.73828125 C299.23632979 182.78877426 281.5788992 171.6846663 272.875 153.8984375 C271.54295048 146.64616789 271.32528635 140.00384233 275.109375 133.48828125 C277.96140606 129.57136846 281.63527728 127.00524318 286.3125 125.8359375 C291.49176278 125.8359375 296.32783928 126.30666657 300.3125 129.8359375 C307.11163142 139.02395294 304.79799394 152.11139585 303.3125 162.8359375 C303.99570313 163.08601562 304.67890625 163.33609375 305.3828125 163.59375 C308.15639938 164.76975084 310.71091917 166.15647269 313.32128906 167.65429688 C328.92446895 176.48875038 345.82150276 179.51095119 363.5 175.8359375 C382.33232802 170.16513845 395.96631994 159.08742819 405.3125 141.8359375 C406.95328457 138.22807596 408.23002747 134.64552314 409.3125 130.8359375 C409.53550781 130.14886719 409.75851562 129.46179688 409.98828125 128.75390625 C414.79374181 111.65692753 410.50005501 92.39001111 402.29296875 77.11328125 C399.01687595 71.69189691 395.33035859 66.72694702 391.3125 61.8359375 C390.62542969 60.98386719 389.93835937 60.13179688 389.23046875 59.25390625 C369.82855251 36.39636115 341.48062376 23.73438152 311.9921875 21.15234375 C246.50374956 16.33338322 181.97126384 47.37974159 124.3125 74.8359375 C123.58846985 75.1802179 122.8644397 75.52449829 122.11846924 75.87921143 C103.75675246 84.61959738 85.56341294 93.6991681 67.3828125 102.80859375 C65.75517654 103.62383268 64.12753674 104.43906394 62.49989319 105.25428772 C55.14878278 108.93689008 47.79906153 112.62216226 40.45516586 116.31913471 C16.85969418 128.19324957 -6.79591394 140.05557267 -31.25 150.0859375 C-32.43577637 150.57280029 -33.62155273 151.05966309 -34.84326172 151.5612793 C-60.36493132 161.87988143 -86.70118049 169.5499497 -113.75 174.6484375 C-115.29880859 174.94089355 -115.29880859 174.94089355 -116.87890625 175.23925781 C-132.04985449 177.95451275 -147.06012481 179.19071447 -162.46386719 179.15161133 C-165.05446413 179.14844731 -167.6439173 179.17205614 -170.234375 179.19726562 C-201.92992597 179.31604421 -232.39429502 171.47400017 -257.6875 151.8359375 C-258.37457031 151.31644531 -259.06164062 150.79695312 -259.76953125 150.26171875 C-276.82957362 136.46775374 -288.06965441 113.49844903 -291.40625 92.03515625 C-293.08696107 72.91706788 -291.78092715 54.40010782 -278.94848633 39.08251953 C-267.65410978 26.37758936 -251.24223515 19.70588273 -234.36743164 18.69726562 C-213.78968784 17.89130235 -193.96449711 20.19845128 -177.5625 33.7734375 C-172.74411974 38.43030781 -169.61427225 43.15844654 -169.1875 49.9609375 C-169.76408381 54.429462 -170.71436418 56.4715996 -173.6875 59.8359375 C-178.68333442 63.40439065 -183.76041364 63.63540496 -189.6875 62.8359375 C-197.61510105 60.57294187 -202.50737053 54.67643047 -206.45703125 47.71875 C-210.6875 39.45596092 -210.6875 39.45596092 -210.6875 36.8359375 C-238.45765471 35.6262102 -238.45765471 35.6262102 -262.6875 47.8359375 C-271.66863457 57.78934168 -274.05004938 69.28155381 -273.90234375 82.39453125 C-272.63983768 102.61758298 -264.541531 120.8439708 -249.6875 134.8359375 C-234.66748516 147.53211929 -217.6167631 154.23923862 -198.6875 158.8359375 C-197.64464844 159.09246094 -196.60179687 159.34898437 -195.52734375 159.61328125 C-146.64973585 169.47518446 -88.39798283 153.67517454 -47.46484375 126.5 C-21.8585179 108.80298989 -1.23462269 86.16324404 4.8984375 54.84375 C6.62676394 42.28892588 5.73876594 29.3099879 -1.96875 18.86328125 C-10.29932752 9.0369864 -20.91332637 4.07614853 -33.6875 2.8359375 C-41.40670249 2.45048455 -49.01504317 2.99015486 -56.6875 3.8359375 C-56.89375 5.0940625 -57.1 6.3521875 -57.3125 7.6484375 C-58.89821018 14.75601787 -62.1510955 21.41482411 -67.4375 26.4609375 C-71.50978363 28.94955527 -73.79892049 29.00935152 -78.4921875 28.390625 C-80.6875 27.8359375 -80.6875 27.8359375 -83.1875 25.8359375 C-85.6560483 20.8988409 -86.53379576 16.69827815 -84.94140625 11.3125 C-80.90657701 2.23762455 -73.54646802 -4.02049013 -64.61328125 -8.1328125 C-43.38554449 -15.61495203 -18.27509185 -13.5349899 0 0 Z " fill="#000000" transform="translate(1256.6875,389.1640625)"/>
<path d="M0 0 C5.11751984 4.44250955 9.23406009 9.40715767 11 16 C11.26905157 21.01650991 10.77161448 24.05032064 7.5625 28 C3.79646501 30.93934438 1.78997521 31.46057454 -3 31 C-11.15126226 27.00754502 -14.11201995 19.22783909 -17.30078125 11.19921875 C-18 9 -18 9 -18 6 C-35.59081199 4.06085537 -50.52510861 4.58392202 -66 14 C-66.71929688 14.30808594 -67.43859375 14.61617188 -68.1796875 14.93359375 C-70.4975125 16.29146119 -70.94993675 17.5634896 -72 20 C-72.80634459 21.17092944 -73.6191242 22.33744746 -74.4375 23.5 C-81.76398542 35.24838786 -81.31576388 49.57553538 -78.3125 62.625 C-71.07047319 91.62548108 -49.75996647 114.2102768 -25 129.9375 C-22.67704827 131.31571059 -20.34944675 132.66888202 -18 134 C-17.26845703 134.41894531 -16.53691406 134.83789062 -15.78320312 135.26953125 C27.11636123 159.57344771 83.52380819 172.34529669 132.01953125 159.18359375 C154.77858198 152.56856429 177.27810331 140.51762498 189.23046875 119.12890625 C198.34486685 101.98116758 201.44884827 84.40276565 197.06640625 65.28515625 C195.73559524 61.18547837 193.82911694 58.06591292 191.20703125 54.671875 C190 53 190 53 190 51 C189.41992188 50.72929687 188.83984375 50.45859375 188.2421875 50.1796875 C186.00274323 49.0014433 184.14572521 47.64250959 182.125 46.125 C168.05938341 36.92825069 152.12411135 38.54638942 136 39 C135.73574219 39.86625 135.47148438 40.7325 135.19921875 41.625 C131.76704207 51.28428552 126.5177145 59.12460219 117.6875 64.375 C112.19480881 65.65237005 106.98296212 65.66098737 101.625 63.875 C98.3488246 61.53487471 96.7779352 59.62425252 95 56 C94.18467499 49.68123118 95.26628939 45.18027912 99 40 C109.04104429 28.25157166 124.86277558 22.34366019 140 21 C161.69790413 19.65391488 182.94912474 22.29362009 200 37 C210.97497736 47.21282615 216.53411533 60.64221217 217.28125 75.51953125 C217.9817896 99.63670907 210.61218039 125.03402563 194 143 C193.55060059 143.50096191 193.10120117 144.00192383 192.63818359 144.51806641 C171.19893762 168.23581079 139.80976159 179.02979646 108.44030762 181.17504883 C102.54341375 181.43815204 96.65128076 181.43044697 90.75 181.375 C89.85825073 181.37034729 88.96650146 181.36569458 88.04772949 181.36090088 C73.84719538 181.27442428 59.99134013 180.58548258 46 178 C44.34895264 177.70198486 44.34895264 177.70198486 42.66455078 177.39794922 C5.99519925 170.63733821 -28.37137276 159.3345282 -62.20883369 143.82035637 C-63.87138945 143.05890379 -65.53518445 142.30015857 -67.19908142 141.54164124 C-91.48013144 130.45404928 -115.28676084 118.43971711 -139.125 106.4375 C-173.97474741 88.86318885 -173.97474741 88.86318885 -209.28222656 72.23660278 C-212.46590782 70.78800922 -215.6368172 69.31329196 -218.80604553 67.8334198 C-278.15189366 40.14051368 -353.24523224 6.77920557 -419 30 C-424.55328874 32.25854972 -429.79599429 35.03662839 -435 38 C-435.96035156 38.53238281 -436.92070312 39.06476563 -437.91015625 39.61328125 C-450.89450413 47.31974987 -461.96323276 57.9850138 -471 70 C-471.57105469 70.74507813 -472.14210938 71.49015625 -472.73046875 72.2578125 C-484.34603996 88.44197598 -487.8772103 107.95169237 -485.6015625 127.40625 C-482.58051359 143.2569482 -473.97646991 157.25322824 -461.2734375 167.1171875 C-445.57281637 177.6596795 -427.67459554 181.59667823 -409.03125 178.41796875 C-400.08172109 176.32400846 -392.44815439 172.41165983 -384.484375 167.92578125 C-381 166 -381 166 -378 165 C-378.15855469 163.8553125 -378.31710937 162.710625 -378.48046875 161.53125 C-381.05772813 140.73006593 -381.05772813 140.73006593 -376.38671875 133.453125 C-373.067271 129.97471778 -369.50598605 128.16536964 -364.69140625 127.84765625 C-359.52665303 128.18732805 -355.98307949 129.57269904 -352 133 C-347.09976234 139.48950393 -345.95545072 145.00518054 -347 153 C-353.25025837 170.76859166 -368.45859186 180.87706306 -384.59375 188.984375 C-403.5612893 198.01251871 -426.69117728 200.66108209 -446.84765625 194.19921875 C-451.7038865 192.35180526 -456.3935407 190.40953256 -461 188 C-462.22589844 187.37351562 -462.22589844 187.37351562 -463.4765625 186.734375 C-483.07697664 175.90747957 -496.12837829 157.0269392 -502.2734375 135.83984375 C-508.24480338 112.50015024 -503.02723457 88.21000871 -491.0859375 67.71484375 C-477.00768763 45.98049385 -458.79728084 29.83650641 -436 18 C-435.40525879 17.68434082 -434.81051758 17.36868164 -434.19775391 17.04345703 C-381.08688495 -10.86023373 -311.21290577 -5.90078893 -255.64257812 11.02246094 C-216.75575564 23.28811316 -179.34325116 41.59278134 -143.81591797 61.44726562 C-140.07139752 63.51204368 -136.29426795 65.5132523 -132.51615906 67.51573181 C-114.35523728 77.14214499 -96.61201419 87.40277913 -79 98 C-79.51949219 97.15179688 -80.03898437 96.30359375 -80.57421875 95.4296875 C-92.58202096 75.41860583 -98.57225995 52.53116303 -93.03125 29.41796875 C-88.81405966 15.44053865 -79.85573738 4.04818049 -67 -3 C-45.25931726 -12.60575407 -20.38049001 -13.26268069 0 0 Z " fill="#000000" transform="translate(738,387)"/>
<path d="M0 0 C0.86745346 -0.00979385 1.73490692 -0.01958771 2.62864685 -0.02967834 C46.12753811 -0.41951465 93.35569641 4.75973564 126.02734375 36.73046875 C126.86523438 37.55804688 127.703125 38.385625 128.56640625 39.23828125 C129.21867187 39.81835938 129.8709375 40.3984375 130.54296875 40.99609375 C145.15492251 54.27362251 153.46406246 75.98571133 154.77783203 95.35546875 C155.79992941 120.26680265 151.51999745 141.98631297 135.75390625 161.92578125 C134.67109375 163.07046875 134.67109375 163.07046875 133.56640625 164.23828125 C132.90640625 164.23828125 132.24640625 164.23828125 131.56640625 164.23828125 C131.56640625 164.89828125 131.56640625 165.55828125 131.56640625 166.23828125 C115.08446243 180.43280701 96.25109161 184.53927937 75.00683594 183.42285156 C56.13352367 181.9954582 38.93587969 174.64630168 25.8515625 160.8984375 C13.03231845 145.97552263 8.34916826 127.77681096 9.37548828 108.42578125 C10.8802751 91.18423409 18.80238694 75.78919129 31.56640625 64.23828125 C40.49108233 57.59084553 51.30632425 53.00990867 62.56640625 54.23828125 C67.72615487 55.52124577 72.17179952 57.00969913 76.19140625 60.55078125 C78.35456898 64.77878112 79.1793882 68.25787802 77.75390625 72.86328125 C73.47569915 77.50819181 68.00565106 79.87239453 61.81640625 80.80078125 C56.64177927 80.47206519 51.65354618 78.65869206 46.73828125 77.11328125 C43.4721365 76.06099525 43.4721365 76.06099525 39.56640625 76.23828125 C29.47495121 85.58472954 25.56152192 99.22644675 24.24609375 112.4609375 C23.77023052 125.26165838 26.98535657 137.84426314 34.56640625 148.23828125 C35.28828125 149.29015625 36.01015625 150.34203125 36.75390625 151.42578125 C48.11692564 162.78880064 64.31390746 168.3417939 80.15112305 168.61865234 C95.2845116 168.58742314 109.18587314 166.62724794 120.89453125 156.15625 C135.09616108 141.59233369 140.53558421 122.30365299 140.60546875 102.36035156 C140.30534818 86.05630174 134.76609644 71.53263123 125.56640625 58.23828125 C125.01082031 57.41585937 124.45523437 56.5934375 123.8828125 55.74609375 C107.10877464 32.49574871 75.29832354 21.54665623 48.1171875 17.015625 C-5.19796533 9.05165595 -60.38380557 20.18304333 -109.32128906 41.98974609 C-113.7436975 43.88967854 -116.66379501 44.83717153 -121.43359375 43.23828125 C-123.98828125 41.609375 -123.98828125 41.609375 -126.30859375 39.67578125 C-127.48035156 38.71478516 -127.48035156 38.71478516 -128.67578125 37.734375 C-129.25585938 37.24066406 -129.8359375 36.74695313 -130.43359375 36.23828125 C-128.87808974 33.12727324 -126.35873212 32.81470285 -123.171875 31.55078125 C-122.52262054 31.29213287 -121.87336609 31.0334845 -121.20443726 30.76699829 C-119.05507354 29.91510375 -116.90120415 29.07552434 -114.74609375 28.23828125 C-114.0063028 27.94926941 -113.26651184 27.66025757 -112.50430298 27.36248779 C-76.64006066 13.38073518 -38.90052444 0.36699298 0 0 Z " fill="#000000" transform="translate(1765.43359375,374.76171875)"/>
<path d="M0 0 C1.4221431 0.00323273 1.4221431 0.00323273 2.87301636 0.00653076 C17.42509576 0.05954827 31.67730451 0.5167862 46 3.3125 C47.53285645 3.61051514 47.53285645 3.61051514 49.09667969 3.91455078 C80.92392332 10.31933978 112.22829173 21.46813443 142 34.3125 C142 35.3025 142 36.2925 142 37.3125 C140.0234375 39.171875 140.0234375 39.171875 137.375 41.0625 C136.51648438 41.69671875 135.65796875 42.3309375 134.7734375 42.984375 C130.38383314 45.08643906 127.02927186 43.66455031 122.55029297 42.13256836 C121.27894368 41.64428666 120.00966847 41.15058064 118.7421875 40.65234375 C117.31192202 40.10355168 115.88141023 39.55540121 114.45068359 39.0078125 C113.70486023 38.72067383 112.95903687 38.43353516 112.19061279 38.13769531 C53.72784351 15.72586273 -14.25380127 2.40934127 -74 28.3125 C-74.65033203 28.59351563 -75.30066406 28.87453125 -75.97070312 29.1640625 C-83.92069533 32.68277673 -90.7147322 37.01285535 -97.4765625 42.39453125 C-99.61407313 44.01917168 -101.55775233 45.22896758 -104 46.3125 C-104 46.9725 -104 47.6325 -104 48.3125 C-105.14389522 49.45639522 -106.29073277 50.59744658 -107.44921875 51.7265625 C-119.96429635 64.52535722 -127.20624117 82.47018197 -128 100.3125 C-128.03996094 100.98925781 -128.07992187 101.66601562 -128.12109375 102.36328125 C-128.69298107 120.76459691 -122.67236556 139.54065618 -110.75 153.625 C-100.56933597 164.29609469 -87.76443887 168.29492529 -73.2668457 168.78540039 C-56.09489866 168.95747641 -38.51734563 165.24812444 -25.55078125 153.0859375 C-14.67211475 140.64534659 -11.04244657 125.50224598 -12 109.3125 C-13.50702027 97.75442083 -17.18711031 85.41940736 -26.0859375 77.32421875 C-28.53728905 76.02850436 -29.74516471 76.1810013 -32.4375 76.75 C-33.9684141 77.24041147 -35.48992734 77.7612451 -37 78.3125 C-45.27382918 80.73220476 -52.05201355 81.66139825 -60 77.3125 C-63.42172533 74.634628 -64.77514339 73.03997726 -66.0625 68.875 C-65.98233499 64.30559417 -65.07080442 62.6828951 -62 59.3125 C-54.65545406 54.59637029 -47.19875374 53.20666668 -38.61328125 54.73828125 C-24.07427998 58.55447643 -13.27297399 67.6611354 -5.6015625 80.32421875 C3.98016735 98.20232445 5.67369213 117.93501115 0 137.3125 C-5.76722012 154.94184332 -17.70992924 167.81254129 -34 176.3125 C-54.83809807 185.42772562 -78.77326025 186.19908534 -100.25 178.625 C-106.10167402 176.10593765 -110.97986294 172.17157375 -116 168.3125 C-117.485 167.3225 -117.485 167.3225 -119 166.3125 C-119 165.6525 -119 164.9925 -119 164.3125 C-119.99 163.9825 -120.98 163.6525 -122 163.3125 C-123.7383811 161.22054986 -125.31929531 159.15877473 -126.875 156.9375 C-127.54426514 155.98520508 -127.54426514 155.98520508 -128.22705078 155.01367188 C-141.73971554 135.34990378 -144.83671786 110.45760759 -141.3515625 87.1640625 C-136.80626313 62.79534274 -122.69822375 41.46800145 -102.484375 27.18554688 C-71.96082739 6.69757742 -36.23250127 -0.14833943 0 0 Z " fill="#000000" transform="translate(142,374.6875)"/>
<path d="M0 0 C0.95132812 0.54527344 1.90265625 1.09054687 2.8828125 1.65234375 C3.84960938 2.20019531 4.81640625 2.74804688 5.8125 3.3125 C6.53695313 3.73402344 7.26140625 4.15554688 8.0078125 4.58984375 C8.0078125 5.24984375 8.0078125 5.90984375 8.0078125 6.58984375 C-29.68796351 23.67899333 -67.50402425 40.35427561 -105.9921875 55.58984375 C-107.19552734 56.06695801 -108.39886719 56.54407227 -109.63867188 57.03564453 C-129.32917161 64.79139421 -149.33706795 71.631484 -169.34196472 78.52311707 C-180.4048991 82.33495278 -191.43974197 86.20668758 -202.41894531 90.25439453 C-203.28745117 90.57263184 -204.15595703 90.89086914 -205.05078125 91.21875 C-205.77579834 91.4876001 -206.50081543 91.7564502 -207.24780273 92.03344727 C-208.9921875 92.58984375 -208.9921875 92.58984375 -210.9921875 92.58984375 C-211.0746875 93.33234375 -211.1571875 94.07484375 -211.2421875 94.83984375 C-212.15991698 98.20485185 -213.29318697 99.41564888 -215.9921875 101.58984375 C-221.28032311 104.09901013 -226.23252222 104.272023 -231.9921875 103.58984375 C-235.1796875 102.02734375 -235.1796875 102.02734375 -236.9921875 99.58984375 C-237.6171875 96.15234375 -237.6171875 96.15234375 -236.9921875 92.58984375 C-227.77213813 80.48852895 -209.02032466 76.0984322 -195.15859985 71.49789429 C-175.66472391 65.01307764 -156.42418932 57.90202329 -137.20069885 50.66215515 C-130.84235153 48.27172301 -124.46687362 45.93189959 -118.08203125 43.61328125 C-94.72340846 35.1084389 -71.88187256 25.78384171 -49.21191406 15.58703613 C-46.31363269 14.28500905 -43.41185169 12.99089868 -40.50991821 11.69703674 C-34.94955207 9.21785494 -29.39361328 6.72918971 -23.84375 4.2265625 C-22.83989258 3.77845215 -21.83603516 3.3303418 -20.80175781 2.86865234 C-18.99583782 2.04666686 -17.20194438 1.19742747 -15.42480469 0.31494141 C-9.45872966 -2.59113051 -6.17982538 -2.91242423 0 0 Z " fill="#000000" transform="translate(1611.9921875,425.41015625)"/>
<path d="M0 0 C2.06270339 0.88124139 4.09609766 1.81189379 6.12869263 2.76051331 C6.89813202 3.11210007 7.66757141 3.46368683 8.46032715 3.82592773 C10.12581078 4.58703183 11.79000371 5.35096531 13.45303345 6.11741638 C17.97599336 8.19789157 22.51378028 10.24556583 27.05056763 12.29566956 C27.98477539 12.71816483 28.91898315 13.1406601 29.88150024 13.57595825 C59.65824045 27.02626544 89.8359835 38.81350951 120.5869751 49.85174561 C131.41157899 53.74340811 142.18063728 57.77896864 152.94900513 61.82301331 C162.76535787 65.50902714 172.58278533 69.16317839 182.51931763 72.51441956 C183.25400269 72.76271515 183.98868774 73.01101074 184.74563599 73.26683044 C188.11454907 74.40158188 191.48712671 75.51900461 194.86990356 76.61207581 C205.40747295 80.10442858 215.49954432 84.09098788 223.19900513 92.32301331 C223.52900513 92.65301331 223.85900513 92.98301331 224.19900513 93.32301331 C224.72207632 97.15886872 224.47014061 98.89293633 222.38650513 102.19801331 C217.70766209 105.317242 213.66640189 105.1629765 208.19900513 104.32301331 C203.65204983 102.81225074 200.87990557 101.34436397 198.19900513 97.32301331 C198.19900513 96.00301331 198.19900513 94.68301331 198.19900513 93.32301331 C197.3344017 93.07206154 197.3344017 93.07206154 196.45233154 92.81604004 C189.4552598 90.75444375 182.5566863 88.45037494 175.65994263 86.07691956 C174.47326492 85.66982758 173.28658722 85.2627356 172.06394958 84.8433075 C168.23286162 83.52722992 164.4031297 82.20728895 160.57400513 80.88551331 C159.5944454 80.54754416 159.5944454 80.54754416 158.59509659 80.20274734 C138.34610434 73.2147149 118.12936241 66.18524662 98.19900513 58.32301331 C97.50552979 58.04967163 96.81205444 57.77632996 96.0975647 57.4947052 C56.63946342 41.91405593 17.92958451 24.61368877 -20.80099487 7.32301331 C-20.80099487 6.66301331 -20.80099487 6.00301331 -20.80099487 5.32301331 C-18.76949211 4.11435959 -16.72881162 2.93195764 -14.67599487 1.76051331 C-13.53904175 1.09922424 -12.40208862 0.43793518 -11.23068237 -0.24339294 C-6.92330235 -2.04385817 -4.35472891 -1.636925 0 0 Z " fill="#000000" transform="translate(320.8009948730469,424.67698669433594)"/>
<path d="M0 0 C82.17 0 164.34 0 249 0 C240.40372609 12.89441086 240.40372609 12.89441086 238.09608018 13.49794465 C237.37173615 13.49696784 236.64739211 13.49599104 235.90109825 13.49498463 C234.64426627 13.50785597 234.64426627 13.50785597 233.36204374 13.52098733 C232.44152774 13.51001809 231.52101174 13.49904884 230.57260132 13.48774719 C229.5947746 13.49187046 228.61694787 13.49599372 227.60949004 13.50024194 C224.31799231 13.5092046 221.02728309 13.48947522 217.73583984 13.4699707 C215.38236901 13.47047922 213.028898 13.47273313 210.6754303 13.47660828 C204.27273922 13.48204157 197.87033595 13.46257945 191.46769667 13.43850732 C185.45748958 13.41759107 179.44725802 13.41809971 173.43702145 13.41647889 C161.53022727 13.41260072 149.62354176 13.39011994 137.71679688 13.35668945 C126.15201362 13.32424542 114.58728773 13.30300781 103.02246094 13.29516602 C101.95365338 13.29443778 101.95365338 13.29443778 100.86325376 13.29369483 C97.99953053 13.29176629 95.13580729 13.28985417 92.27208402 13.28797873 C80.60030268 13.27999948 68.92853284 13.26272593 57.25676394 13.24434257 C54.59239327 13.24028827 51.92802381 13.23647166 49.26365232 13.2331202 C41.67180249 13.22335557 34.07999546 13.20891302 26.48817253 13.1862812 C24.18263704 13.18013855 21.87709632 13.17569965 19.57155418 13.17303848 C16.43881236 13.1690817 13.30615196 13.15898795 10.1734314 13.14717102 C8.78596523 13.14744756 8.78596523 13.14744756 7.37046945 13.14772969 C1.11423596 13.11423596 1.11423596 13.11423596 0 12 C0 8.04 0 4.08 0 0 Z " fill="#000000" transform="translate(994,473)"/>
<path d="M0 0 C81.84 0 163.68 0 248 0 C248 3.96 248 7.92 248 12 C245.84813707 14.15186293 240.84587962 13.17940281 237.86021423 13.1942749 C236.88903532 13.20289055 235.91785641 13.2115062 234.91724783 13.22038293 C231.63617563 13.24796621 228.35510133 13.26810277 225.07397461 13.28808594 C222.73215522 13.30579724 220.39033802 13.32379915 218.04852295 13.34207153 C196.64845887 13.50123693 175.24771792 13.58564913 153.84717464 13.65206528 C150.98218166 13.66111402 148.11718924 13.67032361 145.25219727 13.6796875 C144.18405785 13.68316737 144.18405785 13.68316737 143.09433986 13.68671754 C131.56641633 13.72546631 120.03916039 13.80598112 108.51159435 13.90281627 C96.6780526 14.00139782 84.84485703 14.05824854 73.01091391 14.07564378 C66.36582256 14.0865448 59.72181438 14.11757407 53.07710075 14.19359589 C46.82302692 14.26437783 40.57093215 14.28328984 34.31651306 14.26247787 C32.02188503 14.26390715 29.72717921 14.28417071 27.43290901 14.32471848 C9.18667534 14.63061104 9.18667534 14.63061104 4.82052803 10.53650665 C0 4.12230329 0 4.12230329 0 0 Z " fill="#000000" transform="translate(678,473)"/>
<path d="M0 0 C2.499157 0.01871449 4.99835137 0.03291906 7.49755859 0.0428772 C13.98877192 0.08056213 20.47764912 0.17834614 26.96795654 0.28991699 C33.62547121 0.39330568 40.28331498 0.43811605 46.94140625 0.48828125 C59.94108512 0.59464795 72.93916677 0.76269727 85.9375 0.9765625 C86.61345315 2.38882176 87.27790059 3.80659155 87.9375 5.2265625 C88.30875 6.01546875 88.68 6.804375 89.0625 7.6171875 C89.9375 9.9765625 89.9375 9.9765625 89.9375 13.9765625 C42.4175 13.9765625 -5.1025 13.9765625 -54.0625 13.9765625 C-40.16033122 0.07439372 -18.29047955 -0.41045134 0 0 Z " fill="#000000" transform="translate(1569.0625,472.0234375)"/>
<path d="M0 0 C14.28382736 -0.25937092 28.56727904 -0.45135635 42.85299492 -0.56993389 C49.48954352 -0.62690009 56.12405917 -0.70392375 62.75976562 -0.82983398 C69.18554096 -0.95097225 75.60979428 -1.01545861 82.03662491 -1.04364967 C84.46595296 -1.06369044 86.89521504 -1.1028093 89.32387924 -1.16303062 C107.51959263 -1.59551056 123.11316001 1.62803455 139 11 C139.33 11.66 139.66 12.32 140 13 C92.48 13 44.96 13 -4 13 C-3.19131138 7.33917966 -2.63842176 4.70327357 0 0 Z " fill="#000000" transform="translate(265,473)"/>
<path d="M0 0 C33 0 66 0 100 0 C100 4.29 100 8.58 100 13 C66.34 13 32.68 13 -2 13 C-1 3 -1 3 0 0 Z " fill="#000000" transform="translate(1799,473)"/>
<path d="M0 0 C33 0 66 0 100 0 C102 7 102 7 102 13 C68.34 13 34.68 13 0 13 C0 8.71 0 4.42 0 0 Z " fill="#000000" transform="translate(21,473)"/>
<path d="M0 0 C10.70209227 -0.25729192 21.40342405 -0.45152209 32.10800362 -0.56993389 C37.08126823 -0.62682938 42.05238528 -0.70370748 47.02441406 -0.82983398 C89.92259268 -1.89066397 89.92259268 -1.89066397 107 11 C107 11.66 107 12.32 107 13 C97.60946707 13.25903556 88.22022861 13.45235559 78.82685661 13.56993389 C74.46121784 13.62647171 70.09808345 13.70262739 65.73388672 13.82983398 C42.66297186 14.4846501 21.70646658 13.35935973 1 2 C0.67 1.34 0.34 0.68 0 0 Z " fill="#000000" transform="translate(459,473)"/>
<path d="M0 0 C4.91452369 0.11416698 9.82970029 0.16310882 14.74517822 0.21820068 C24.32563129 0.33486131 33.90324054 0.52164448 43.48150635 0.75531006 C40.73576475 6.24679325 29.53392514 8.57997806 23.78925133 10.61012363 C7.98058919 15.87342961 -8.35588006 14.99019601 -24.80914307 14.51062012 C-29.19471102 14.39554842 -33.58105194 14.34732795 -37.9677124 14.29241943 C-46.48665375 14.17646142 -55.00200352 13.99023536 -63.51849365 13.75531006 C-63.51849365 13.09531006 -63.51849365 12.43531006 -63.51849365 11.75531006 C-43.7394144 -2.13798994 -23.0872494 -0.59437729 0 0 Z " fill="#000000" transform="translate(1417.5184936523438,472.24468994140625)"/>
<path d="M0 0 C26.4 0 52.8 0 80 0 C79.67 4.29 79.34 8.58 79 13 C53.92 13 28.84 13 3 13 C0 3 0 3 0 0 Z " fill="#000000" transform="translate(1689,473)"/>
<path d="M0 0 C26.4 0 52.8 0 80 0 C78 10 78 10 77 13 C51.92 13 26.84 13 1 13 C0.67 8.71 0.34 4.42 0 0 Z " fill="#000000" transform="translate(151,473)"/>
</svg>
